<?xml version="1.0" encoding="utf-8"?>
<!-- Generator: Adobe Illustrator 19.1.0, SVG Export Plug-In . SVG Version: 6.00 Build 0)  -->
<svg version="1.1" id="Layer_1" xmlns="http://www.w3.org/2000/svg" xmlns:xlink="http://www.w3.org/1999/xlink" x="0px" y="0px"
	 viewBox="0 0 612 197" style="enable-background:new 0 0 612 197;" xml:space="preserve">
<style type="text/css">
	.st0{fill-rule:evenodd;clip-rule:evenodd;fill:#30302F;stroke:#2F302E;stroke-miterlimit:10;}
	.st1{fill-rule:evenodd;clip-rule:evenodd;fill:#034A6D;}
	.st2{fill:#30302F;}
	.st3{fill:#034A6D;}
</style>
<g>
	<polygon class="st0" points="433.4,123.3 497.7,123.3 497.7,136.7 419.3,136.7 412.3,136.7 412.2,124.1 476,59.3 412.2,59.3
		412.2,45.8 497.7,45.8 497.7,58.3 	"/>
	<polygon class="st1" points="554.7,80.8 584.2,45.8 602,45.8 563.5,91.2 602,136.7 584.2,136.6 554.7,101.7 525.1,136.6
		507.3,136.7 545.8,91.2 507.3,45.8 525,45.8 	"/>
	<path class="st0" d="M207.9,45.4H222v45.9c0,17.3,14.3,31.6,31.6,31.6s31.6-14.3,31.6-31.6V45.4h14.2v45.9
		c0,25.2-20.7,45.9-45.9,45.9s-45.7-20.7-45.7-45.9V45.4z"/>
	<g>
		<path class="st2" d="M116.1,156.9c-4.3,1-8.8,1.6-13.5,1.6c-32.8,0-59.4-26.6-59.4-59.4s26.6-59.4,59.4-59.4
			c32.8,0,59.4,26.6,59.4,59.4c0,20-10,37.7-25.2,48.5l21,24.1c21.9-16.6,36-42.9,36-72.5C193.8,48.9,153,8,102.6,8
			C52.3,8,11.5,48.9,11.5,99.2c0,50.3,40.8,91.1,91.1,91.1c13.1,0,25.5-2.8,36.7-7.7L116.1,156.9z"/>
		<circle class="st3" cx="102.6" cy="99.2" r="38.7"/>
	</g>
	<path class="st0" d="M383.3,108.3c-5.7,8.9-15.7,14.6-26.7,14.6c-16.8,0-30.7-13.3-31.5-30h77.3v-1.6c0-25.2-20.4-45.6-45.7-45.6
		c-25.2,0-45.6,20.4-45.6,45.6s20.4,45.6,45.6,45.6c19,0,35.5-11.6,42.3-28.6H383.3z M356.6,59.6c13,0,24.4,7.8,29.3,19.6h-58.4
		C332.3,67.4,343.7,59.6,356.6,59.6z"/>
</g>
</svg>
