<?xml version="1.0" encoding="utf-8"?>
<!-- Generator: Adobe Illustrator 19.1.0, SVG Export Plug-In . SVG Version: 6.00 Build 0)  -->
<svg version="1.1" id="Layer_1" xmlns="http://www.w3.org/2000/svg" xmlns:xlink="http://www.w3.org/1999/xlink" x="0px" y="0px"
	 viewBox="0 0 436 150" style="enable-background:new 0 0 436 150;" xml:space="preserve">
<style type="text/css">
	.st0{fill-rule:evenodd;clip-rule:evenodd;fill:#FFFFFF;}
	.st1{fill:#FFFFFF;}
</style>
<g>
	<g>
		<polygon class="st0" points="302.9,92.6 350.1,92.6 350.1,102.5 292.5,102.5 287.4,102.5 287.3,93.3 334.1,45.7 287.3,45.7 
			287.3,35.8 350.1,35.8 350.1,45 		"/>
		<path class="st1" d="M351.1,103.5h-64.7l-0.1-10.7l45.4-46.1h-45.4v-12h64.8v10.7l-0.3,0.3l-45.4,45.9h45.7V103.5z M288.4,101.5
			H349v-7.8h-48.6L349,44.6v-7.8h-60.7v7.9h48.2l-48.2,49L288.4,101.5z"/>
	</g>
	<g>
		<polygon class="st0" points="391.9,61.4 413.5,35.8 426.6,35.8 398.4,69.1 426.6,102.5 413.5,102.4 391.9,76.8 370.2,102.4 
			357.1,102.5 385.4,69.1 357.1,35.8 370.1,35.8 		"/>
		<path class="st1" d="M428.8,103.5l-15.8-0.1l-21.2-25l-21.2,25l-15.8,0.1L384,69.1l-29.1-34.4h15.7l21.3,25.1l21.2-25.1h15.8
			l-29.1,34.4L428.8,103.5z M414,101.4l10.4,0.1L397,69.1l27.4-32.3H414L391.9,63l-22.2-26.3h-10.3l27.4,32.3l-27.4,32.3l10.4-0.1
			l22.1-26.2L414,101.4z"/>
	</g>
	<g>
		<path class="st0" d="M147.7,35.5H158v33.6c0,12.7,10.5,23.2,23.2,23.2s23.2-10.5,23.2-23.2V35.5h10.4v33.6
			c0,18.5-15.2,33.6-33.6,33.6s-33.6-15.2-33.6-33.6V35.5z"/>
		<path class="st1" d="M181.3,103.8c-19.1,0-34.6-15.6-34.6-34.7V34.5h12.4v34.7c0,12.2,10,22.2,22.2,22.2c12.2,0,22.2-10,22.2-22.2
			V34.5h12.5v34.7C215.9,88.2,200.4,103.8,181.3,103.8z M148.7,36.5v32.6c0,18,14.6,32.6,32.5,32.6c18,0,32.6-14.6,32.6-32.6V36.5
			h-8.4v32.6c0,13.4-10.9,24.2-24.2,24.2c-13.4,0-24.2-10.9-24.2-24.2V36.5H148.7z"/>
	</g>
	<path class="st1" d="M82.4,117.4c-3.2,0.7-6.5,1.1-9.9,1.1C48.5,118.5,29,99,29,75s19.5-43.5,43.5-43.5c24.1,0,43.5,19.5,43.5,43.5
		c0,14.7-7.3,27.7-18.5,35.6l15.4,17.6c16-12.2,26.4-31.5,26.4-53.2c0-36.9-29.9-66.9-66.9-66.9S5.6,38,5.6,75s29.9,66.9,66.9,66.9
		c9.6,0,18.7-2,27-5.7L82.4,117.4z"/>
	<g>
		<circle class="st1" cx="72.5" cy="75" r="28.4"/>
	</g>
	<g>
		<path class="st0" d="M274.4,81.6c-4.2,6.5-11.5,10.7-19.6,10.7c-12.3,0-22.5-9.8-23.1-22h56.7v-1.2c0-18.5-15-33.5-33.6-33.5
			c-18.5,0-33.5,15-33.5,33.5s15,33.5,33.5,33.5c13.9,0,26-8.5,31.1-21H274.4z M254.7,45.9c9.5,0,17.9,5.8,21.5,14.4h-42.9
			C236.9,51.7,245.3,45.9,254.7,45.9z"/>
		<path class="st1" d="M254.7,103.6c-19,0-34.5-15.5-34.5-34.5c0-19,15.5-34.5,34.5-34.5c19.1,0,34.6,15.5,34.6,34.5v2.2h-56.6
			c1.1,11.3,10.6,20,22,20c7.6,0,14.6-3.8,18.8-10.2l0.3-0.5h13.5l-0.6,1.4C281.4,95.1,268.9,103.6,254.7,103.6z M254.7,36.7
			c-17.9,0-32.4,14.6-32.4,32.4s14.6,32.4,32.4,32.4c12.8,0,24.2-7.4,29.5-18.9h-9.3c-4.5,6.7-12,10.7-20.2,10.7
			c-12.9,0-23.5-10.1-24.2-23l-0.1-1.1h56.7v-0.2C287.3,51.2,272.7,36.7,254.7,36.7z M277.8,61.3h-46l0.6-1.4
			c3.8-9.1,12.5-15,22.3-15c9.9,0,18.7,5.9,22.4,15L277.8,61.3z M234.9,59.2h39.7c-3.7-7.5-11.4-12.3-19.9-12.3
			C246.3,46.9,238.7,51.7,234.9,59.2z"/>
	</g>
	<g>
		<path class="st1" d="M173.5,120.6c-0.3-0.3-0.8-0.5-1.5-0.5h-2v3.5h1.9c0.7,0,1.3-0.1,1.6-0.4c0.3-0.3,0.5-0.7,0.5-1.3
			C173.9,121.3,173.8,120.9,173.5,120.6z"/>
		<polygon class="st1" points="207.5,121 206,125.2 209,125.2 207.5,121 		"/>
		<path class="st1" d="M382.5,120.6c-0.3-0.3-0.8-0.5-1.5-0.5h-2v3.5h1.9c0.7,0,1.3-0.1,1.6-0.4c0.3-0.3,0.5-0.7,0.5-1.3
			C383,121.3,382.9,120.9,382.5,120.6z"/>
		<path class="st1" d="M145.6,113.7v20.5h282.6v-20.5H145.6z M151.9,127.1c0.4,0.6,1,0.9,1.8,0.9c0.7,0,1.3-0.2,1.7-0.6
			c0.4-0.4,0.6-0.9,0.6-1.6h1.3l0,0c0,0.9-0.3,1.7-1,2.3c-0.7,0.6-1.5,0.9-2.6,0.9c-1.1,0-2-0.4-2.7-1.2c-0.7-0.8-1-1.8-1-3v-1.7
			c0-1.2,0.3-2.2,1-3c0.7-0.8,1.6-1.2,2.7-1.2c1.1,0,2,0.3,2.6,0.9c0.7,0.6,1,1.4,1,2.3l0,0H156c0-0.7-0.2-1.2-0.6-1.6
			c-0.4-0.4-1-0.6-1.7-0.6c-0.7,0-1.3,0.3-1.8,0.9c-0.4,0.6-0.7,1.3-0.7,2.2v1.8C151.2,125.8,151.4,126.5,151.9,127.1z M175.7,128.9
			h-1.4c-0.2-0.2-0.3-0.4-0.3-0.7c0-0.3-0.1-0.6-0.1-0.9v-0.9c0-0.5-0.2-1-0.5-1.3c-0.3-0.3-0.7-0.5-1.2-0.5h-2.3v4.2h-1.3v-9.8h3.4
			c1.1,0,1.9,0.2,2.5,0.7c0.6,0.5,0.8,1.2,0.8,2.1c0,0.5-0.1,0.9-0.4,1.3c-0.3,0.4-0.6,0.7-1.1,0.9c0.5,0.2,0.9,0.5,1.2,0.9
			c0.2,0.4,0.4,0.9,0.4,1.5v0.9c0,0.3,0,0.6,0.1,0.8c0.1,0.2,0.2,0.4,0.4,0.6V128.9z M193.1,128.9h-6v-9.8h6v1h-4.6v3.2h4v1h-4v3.5
			h4.7V128.9z M210.2,128.9l-0.9-2.5h-3.7l-0.9,2.5h-1.4l3.5-9.8h1.1l3.5,9.8H210.2z M228.6,120.1h-3.2v8.8h-1.3v-8.8h-3.2v-1h7.7
			V120.1z M241.1,128.9h-1.3v-9.8h1.3V128.9z M260.6,128.9h-1.3l-4.7-7.5l0,0v7.5h-1.3v-9.8h1.3l4.7,7.5l0,0v-7.5h1.3V128.9z
			 M279.6,127.6c-0.2,0.4-0.6,0.7-1.2,1c-0.6,0.3-1.3,0.5-2.2,0.5c-1.1,0-2.1-0.4-2.8-1.1c-0.7-0.7-1.1-1.7-1.1-2.9v-2
			c0-1.2,0.4-2.2,1.1-2.9c0.7-0.7,1.6-1.1,2.8-1.1c1.1,0,2,0.3,2.6,0.9c0.6,0.6,0.9,1.3,0.9,2.2l0,0h-1.3c0-0.6-0.2-1.1-0.6-1.5
			c-0.4-0.4-0.9-0.6-1.6-0.6c-0.7,0-1.4,0.3-1.8,0.8s-0.7,1.3-0.7,2.1v2c0,0.9,0.2,1.6,0.7,2.1c0.5,0.6,1.1,0.8,1.9,0.8
			c0.6,0,1-0.1,1.4-0.2c0.3-0.2,0.6-0.3,0.8-0.5V125h-2.2v-1h3.5V127.6z M310.8,120.1h-4.8v3.4h4.1v1h-4.1v4.3h-1.3v-9.8h6.1V120.1z
			 M329.1,125.6c0,1.1-0.3,1.9-1,2.5c-0.7,0.6-1.6,0.9-2.7,0.9c-1.1,0-1.9-0.3-2.6-0.9c-0.7-0.6-1-1.4-1-2.5v-6.5h1.3v6.5
			c0,0.8,0.2,1.3,0.6,1.8c0.4,0.4,1,0.6,1.7,0.6c0.7,0,1.3-0.2,1.8-0.6c0.5-0.4,0.7-1,0.7-1.8v-6.5h1.3V125.6z M347.7,120.1h-3.2
			v8.8h-1.3v-8.8h-3.2v-1h7.7V120.1z M365.9,125.6c0,1.1-0.3,1.9-1,2.5c-0.7,0.6-1.6,0.9-2.7,0.9c-1.1,0-1.9-0.3-2.6-0.9
			s-1-1.4-1-2.5v-6.5h1.3v6.5c0,0.8,0.2,1.3,0.6,1.8c0.4,0.4,1,0.6,1.7,0.6c0.7,0,1.3-0.2,1.8-0.6c0.4-0.4,0.7-1,0.7-1.8v-6.5h1.3
			V125.6z M384.8,128.9h-1.4c-0.2-0.2-0.3-0.4-0.3-0.7c0-0.3-0.1-0.6-0.1-0.9v-0.9c0-0.5-0.2-1-0.5-1.3c-0.3-0.3-0.7-0.5-1.2-0.5
			H379v4.2h-1.3v-9.8h3.4c1.1,0,1.9,0.2,2.5,0.7c0.6,0.5,0.8,1.2,0.8,2.1c0,0.5-0.1,0.9-0.4,1.3s-0.6,0.7-1.1,0.9
			c0.5,0.2,0.9,0.5,1.2,0.9s0.4,0.9,0.4,1.5v0.9c0,0.3,0,0.6,0.1,0.8c0.1,0.2,0.2,0.4,0.4,0.6V128.9z M402.1,128.9h-6v-9.8h6v1h-4.6
			v3.2h4v1h-4v3.5h4.7V128.9z M419,128.3c-0.6,0.5-1.4,0.7-2.4,0.7c-0.9,0-1.8-0.3-2.5-0.8c-0.7-0.5-1.1-1.2-1.1-2.1l0,0h1.3
			c0,0.6,0.2,1.1,0.7,1.4c0.5,0.3,1,0.5,1.6,0.5c0.6,0,1.1-0.1,1.5-0.4c0.4-0.3,0.5-0.7,0.5-1.2c0-0.4-0.2-0.8-0.5-1.1
			c-0.3-0.3-0.9-0.6-1.7-0.8c-1-0.2-1.8-0.6-2.3-1.1c-0.6-0.5-0.8-1.1-0.8-1.8c0-0.8,0.3-1.4,0.9-1.9c0.6-0.5,1.4-0.8,2.3-0.8
			c1,0,1.9,0.3,2.5,0.9c0.6,0.6,0.9,1.3,0.9,2l0,0h-1.3c0-0.6-0.2-1-0.6-1.4c-0.4-0.4-0.9-0.5-1.5-0.5c-0.6,0-1.1,0.2-1.4,0.4
			c-0.3,0.3-0.5,0.7-0.5,1.2c0,0.4,0.2,0.8,0.5,1.1c0.4,0.3,0.9,0.5,1.8,0.8c1,0.3,1.7,0.6,2.3,1.1c0.5,0.5,0.8,1.1,0.8,1.8
			C419.9,127.2,419.6,127.8,419,128.3z"/>
	</g>
</g>
</svg>
